<svg version="1.1" id="Layer_1" xmlns="http://www.w3.org/2000/svg" xmlns:xlink="http://www.w3.org/1999/xlink" x="0px" y="0px" viewBox="0 0 30 30" style="enable-background:new 0 0 30 30;" xml:space="preserve">
<g>
	<g>
		<path d="M15,0C6.7,0,0,6.7,0,15s6.7,15,15,15s15-6.7,15-15S23.3,0,15,0z M15,29c-3.1,0-6-1-8.3-2.7l3.6-1.4
			c1.9-0.8,2.6-3.7,2.6-4.4c0-0.2-0.1-0.3-0.2-0.4c-0.8-0.6-1.5-1.6-1.5-2.4c0-0.8-0.4-1.3-0.7-1.5C10.3,15.8,10,15,10,14.5
			c0-0.1,0.1-0.1,0.1-0.1c0.3,0,0.5-0.2,0.5-0.5v-3.3c0-1.8,1.8-4.5,4.6-4.5c2.7,0,3.4,1.2,3.5,1.6c0,0.1,0,0.1,0,0.2
			c0,0.3,0.2,0.4,0.4,0.5c0.3,0.2,0.8,0.5,0.8,2.2v3.3c0,0.3,0.2,0.5,0.5,0.5c0,0,0.1,0.1,0.1,0.1c0,0.5-0.3,1.3-0.5,1.8
			c-0.3,0.2-0.7,0.6-0.7,1.5c0,0.8-0.8,1.8-1.5,2.4c-0.1,0.1-0.2,0.2-0.2,0.4c0,0.7,0.6,3.6,2.6,4.3l3.2,1.4C21,28,18.1,29,15,29z
			 M24.2,25.5l-3.7-1.6c-1.3-0.5-1.8-2.5-1.9-3.2c0.9-0.8,1.7-1.9,1.7-3c0-0.5,0.2-0.6,0.2-0.6c0.2,0,0.3-0.1,0.3-0.3
			c0.1-0.2,0.6-1.5,0.6-2.4c0,0,0-0.1,0-0.1c-0.1-0.2-0.2-0.6-0.6-0.8v-3c0-1.8-0.6-2.5-1.1-2.9c-0.1-0.8-1-2.6-4.5-2.6
			c-3.5,0-5.6,3.2-5.6,5.5v3C9.3,13.7,9.1,14,9,14.3c0,0,0,0.1,0,0.1c0,0.9,0.5,2.3,0.6,2.4c0.1,0.1,0.2,0.2,0.3,0.3
			c0,0,0.2,0.1,0.2,0.6c0,1,0.8,2.2,1.7,3c-0.1,0.7-0.7,2.7-1.9,3.2l-4.1,1.6c0,0,0,0,0,0C2.9,23,1,19.2,1,15C1,7.3,7.3,1,15,1
			s14,6.3,14,14C29,19.2,27.1,23,24.2,25.5z"></path>
	</g>
</g>
</svg>