<svg version="1.1" id="Layer_1" xmlns="http://www.w3.org/2000/svg" xmlns:xlink="http://www.w3.org/1999/xlink" x="0px" y="0px" viewBox="0 0 30 30" style="enable-background:new 0 0 30 30;" xml:space="preserve">
<g>
	<g>
		<path d="M0.5,30c-0.1,0-0.2,0-0.3-0.1S0,29.7,0,29.5v-18c0-0.2,0.2-0.4,0.4-0.5l9-2c0.1,0,0.3,0,0.4,0.1C9.9,9.2,10,9.3,10,9.5v17
			c0,0.2-0.1,0.4-0.3,0.5l-9,3C0.6,30,0.6,30,0.5,30z M1,11.9v16.9l8-2.7v-16L1,11.9z"></path>
	</g>
	<g>
		<path d="M19.5,30c-0.1,0-0.2,0-0.3-0.1c-0.1-0.1-0.2-0.2-0.2-0.4v-18c0-0.2,0.2-0.4,0.4-0.5l10-2c0.1,0,0.3,0,0.4,0.1
			C29.9,9.2,30,9.3,30,9.5v17c0,0.2-0.1,0.4-0.4,0.5l-10,3H19.5z M20,11.9v16.9l9-2.7v-16L20,11.9z"></path>
	</g>
	<g>
		<path d="M19.5,30h-0.1l-10-3C9.1,26.9,9,26.7,9,26.5v-17c0-0.2,0.1-0.3,0.2-0.4S9.5,9,9.6,9l1.3,0.3c0.2,0,0.3,0.1,0.4,0.3
			c1,2.4,2.4,4.9,3,6.2c0.6-1,1.7-2.9,2.7-4.9c0.1-0.2,0.3-0.3,0.5-0.3l2.1,0.4c0.2,0,0.4,0.3,0.4,0.5v18c0,0.2-0.1,0.3-0.2,0.4
			C19.7,30,19.6,30,19.5,30z M10,26.1l9,2.7V11.9l-1.3-0.3c-1.4,2.8-3,5.3-3,5.4c-0.1,0.2-0.2,0.2-0.4,0.2s-0.3-0.1-0.4-0.3
			c0,0-2-3.6-3.4-6.8l-0.5,0V26.1z"></path>
	</g>
	<g>
		<path d="M14.3,17.3C14.2,17.3,14.2,17.3,14.3,17.3c-0.2,0-0.3-0.1-0.4-0.3C13.6,16.6,9,8.4,9,5.5c0-3,2.5-5.5,5.5-5.5
			S20,2.5,20,5.5c0,2.9-5.1,11.2-5.3,11.5C14.6,17.2,14.4,17.3,14.3,17.3z M14.5,1C12,1,10,3,10,5.5c0,2,2.8,7.5,4.3,10.3
			C15.9,13,19,7.5,19,5.5C19,3,17,1,14.5,1z"></path>
	</g>
	<g>
		<path d="M14.5,8C13.1,8,12,6.9,12,5.5S13.1,3,14.5,3S17,4.1,17,5.5S15.9,8,14.5,8z M14.5,4C13.7,4,13,4.7,13,5.5S13.7,7,14.5,7
			S16,6.3,16,5.5S15.3,4,14.5,4z"></path>
	</g>
</g>
</svg>